<svg version="1.1" xmlns="http://www.w3.org/2000/svg" xmlns:xlink="http://www.w3.org/1999/xlink" width="1403" height="1005"><defs><clipPath id="VMzgSHOyTeie"><path fill="none" stroke="none" d=" M 0 0 L 1403 0 L 1403 1005 L 0 1005 L 0 0 Z"/></clipPath></defs><g transform="scale(1,1)" clip-path="url(#VMzgSHOyTeie)"><g><rect fill="rgb(255,255,255)" stroke="none" x="0" y="0" width="1403" height="1005" fill-opacity="1"/><path fill="none" stroke="rgb(180,179,186)" paint-order="fill stroke markers" d=" M 10.5 0.5 L 10.5 1005.5 M 10.5 0.5 L 10.5 1005.5 M 61.5 0.5 L 61.5 1005.5 M 111.5 0.5 L 111.5 1005.5 M 162.5 0.5 L 162.5 1005.5 M 213.5 0.5 L 213.5 1005.5 M 264.5 0.5 L 264.5 1005.5 M 315.5 0.5 L 315.5 1005.5 M 366.5 0.5 L 366.5 1005.5 M 417.5 0.5 L 417.5 1005.5 M 468.5 0.5 L 468.5 1005.5 M 519.5 0.5 L 519.5 1005.5 M 569.5 0.5 L 569.5 1005.5 M 620.5 0.5 L 620.5 1005.5 M 722.5 0.5 L 722.5 1005.5 M 773.5 0.5 L 773.5 1005.5 M 824.5 0.5 L 824.5 1005.5 M 875.5 0.5 L 875.5 1005.5 M 926.5 0.5 L 926.5 1005.5 M 977.5 0.5 L 977.5 1005.5 M 1027.5 0.5 L 1027.5 1005.5 M 1078.5 0.5 L 1078.5 1005.5 M 1129.5 0.5 L 1129.5 1005.5 M 1180.5 0.5 L 1180.5 1005.5 M 1231.5 0.5 L 1231.5 1005.5 M 1282.5 0.5 L 1282.5 1005.5 M 1333.5 0.5 L 1333.5 1005.5 M 1384.5 0.5 L 1384.5 1005.5" stroke-opacity="1" stroke-linecap="round" stroke-linejoin="round" stroke-miterlimit="10"/><path fill="none" stroke="rgb(180,179,186)" paint-order="fill stroke markers" d=" M 20.5 0.5 L 20.5 1005.5 M 30.5 0.5 L 30.5 1005.5 M 40.5 0.5 L 40.5 1005.5 M 50.5 0.5 L 50.5 1005.5 M 71.5 0.5 L 71.5 1005.5 M 81.5 0.5 L 81.5 1005.5 M 91.5 0.5 L 91.5 1005.5 M 101.5 0.5 L 101.5 1005.5 M 122.5 0.5 L 122.5 1005.5 M 132.5 0.5 L 132.5 1005.5 M 142.5 0.5 L 142.5 1005.5 M 152.5 0.5 L 152.5 1005.5 M 173.5 0.5 L 173.5 1005.5 M 183.5 0.5 L 183.5 1005.5 M 193.5 0.5 L 193.5 1005.5 M 203.5 0.5 L 203.5 1005.5 M 223.5 0.5 L 223.5 1005.5 M 234.5 0.5 L 234.5 1005.5 M 244.5 0.5 L 244.5 1005.5 M 254.5 0.5 L 254.5 1005.5 M 274.5 0.5 L 274.5 1005.5 M 284.5 0.5 L 284.5 1005.5 M 295.5 0.5 L 295.5 1005.5 M 305.5 0.5 L 305.5 1005.5 M 325.5 0.5 L 325.5 1005.5 M 335.5 0.5 L 335.5 1005.5 M 346.5 0.5 L 346.5 1005.5 M 356.5 0.5 L 356.5 1005.5 M 376.5 0.5 L 376.5 1005.5 M 386.5 0.5 L 386.5 1005.5 M 396.5 0.5 L 396.5 1005.5 M 407.5 0.5 L 407.5 1005.5 M 427.5 0.5 L 427.5 1005.5 M 437.5 0.5 L 437.5 1005.5 M 447.5 0.5 L 447.5 1005.5 M 457.5 0.5 L 457.5 1005.5 M 478.5 0.5 L 478.5 1005.5 M 488.5 0.5 L 488.5 1005.5 M 498.5 0.5 L 498.5 1005.5 M 508.5 0.5 L 508.5 1005.5 M 529.5 0.5 L 529.5 1005.5 M 539.5 0.5 L 539.5 1005.5 M 549.5 0.5 L 549.5 1005.5 M 559.5 0.5 L 559.5 1005.5 M 580.5 0.5 L 580.5 1005.5 M 590.5 0.5 L 590.5 1005.5 M 600.5 0.5 L 600.5 1005.5 M 610.5 0.5 L 610.5 1005.5 M 631.5 0.5 L 631.5 1005.5 M 641.5 0.5 L 641.5 1005.5 M 651.5 0.5 L 651.5 1005.5 M 661.5 0.5 L 661.5 1005.5 M 681.5 0.5 L 681.5 1005.5 M 692.5 0.5 L 692.5 1005.5 M 702.5 0.5 L 702.5 1005.5 M 712.5 0.5 L 712.5 1005.5 M 732.5 0.5 L 732.5 1005.5 M 742.5 0.5 L 742.5 1005.5 M 753.5 0.5 L 753.5 1005.5 M 763.5 0.5 L 763.5 1005.5 M 783.5 0.5 L 783.5 1005.5 M 793.5 0.5 L 793.5 1005.5 M 804.5 0.5 L 804.5 1005.5 M 814.5 0.5 L 814.5 1005.5 M 834.5 0.5 L 834.5 1005.5 M 844.5 0.5 L 844.5 1005.5 M 854.5 0.5 L 854.5 1005.5 M 865.5 0.5 L 865.5 1005.5 M 885.5 0.5 L 885.5 1005.5 M 895.5 0.5 L 895.5 1005.5 M 905.5 0.5 L 905.5 1005.5 M 915.5 0.5 L 915.5 1005.5 M 936.5 0.5 L 936.5 1005.5 M 946.5 0.5 L 946.5 1005.5 M 956.5 0.5 L 956.5 1005.5 M 966.5 0.5 L 966.5 1005.5 M 987.5 0.5 L 987.5 1005.5 M 997.5 0.5 L 997.5 1005.5 M 1007.5 0.5 L 1007.5 1005.5 M 1017.5 0.5 L 1017.5 1005.5 M 1038.5 0.5 L 1038.5 1005.5 M 1048.5 0.5 L 1048.5 1005.5 M 1058.5 0.5 L 1058.5 1005.5 M 1068.5 0.5 L 1068.5 1005.5 M 1088.5 0.5 L 1088.5 1005.5 M 1099.5 0.5 L 1099.5 1005.5 M 1109.5 0.5 L 1109.5 1005.5 M 1119.5 0.5 L 1119.5 1005.5 M 1139.5 0.5 L 1139.5 1005.5 M 1150.5 0.5 L 1150.5 1005.5 M 1160.5 0.5 L 1160.5 1005.5 M 1170.5 0.5 L 1170.5 1005.5 M 1190.5 0.5 L 1190.5 1005.5 M 1200.5 0.5 L 1200.5 1005.5 M 1211.5 0.5 L 1211.5 1005.5 M 1221.5 0.5 L 1221.5 1005.5 M 1241.5 0.5 L 1241.5 1005.5 M 1251.5 0.5 L 1251.5 1005.5 M 1262.5 0.5 L 1262.5 1005.5 M 1272.5 0.5 L 1272.5 1005.5 M 1292.5 0.5 L 1292.5 1005.5 M 1302.5 0.5 L 1302.5 1005.5 M 1312.5 0.5 L 1312.5 1005.5 M 1323.5 0.5 L 1323.5 1005.5 M 1343.5 0.5 L 1343.5 1005.5 M 1353.5 0.5 L 1353.5 1005.5 M 1363.5 0.5 L 1363.5 1005.5 M 1373.5 0.5 L 1373.5 1005.5 M 1394.5 0.5 L 1394.5 1005.5" stroke-opacity="0.23529411764705882" stroke-linecap="round" stroke-linejoin="round" stroke-miterlimit="10"/><path fill="none" stroke="rgb(180,179,186)" paint-order="fill stroke markers" d=" M 0.5 17.5 L 1403.5 17.5 M 0.5 17.5 L 1403.5 17.5 M 0.5 68.5 L 1403.5 68.5 M 0.5 119.5 L 1403.5 119.5 M 0.5 169.5 L 1403.5 169.5 M 0.5 220.5 L 1403.5 220.5 M 0.5 271.5 L 1403.5 271.5 M 0.5 322.5 L 1403.5 322.5 M 0.5 373.5 L 1403.5 373.5 M 0.5 424.5 L 1403.5 424.5 M 0.5 475.5 L 1403.5 475.5 M 0.5 526.5 L 1403.5 526.5 M 0.5 577.5 L 1403.5 577.5 M 0.5 627.5 L 1403.5 627.5 M 0.5 678.5 L 1403.5 678.5 M 0.5 729.5 L 1403.5 729.5 M 0.5 780.5 L 1403.5 780.5 M 0.5 882.5 L 1403.5 882.5 M 0.5 933.5 L 1403.5 933.5 M 0.5 984.5 L 1403.5 984.5" stroke-opacity="1" stroke-linecap="round" stroke-linejoin="round" stroke-miterlimit="10"/><path fill="none" stroke="rgb(180,179,186)" paint-order="fill stroke markers" d=" M 0.5 7.5 L 1403.5 7.5 M 0.5 7.5 L 1403.5 7.5 M 0.5 27.5 L 1403.5 27.5 M 0.5 37.5 L 1403.5 37.5 M 0.5 47.5 L 1403.5 47.5 M 0.5 57.5 L 1403.5 57.5 M 0.5 78.5 L 1403.5 78.5 M 0.5 88.5 L 1403.5 88.5 M 0.5 98.5 L 1403.5 98.5 M 0.5 108.5 L 1403.5 108.5 M 0.5 129.5 L 1403.5 129.5 M 0.5 139.5 L 1403.5 139.5 M 0.5 149.5 L 1403.5 149.5 M 0.5 159.5 L 1403.5 159.5 M 0.5 180.5 L 1403.5 180.5 M 0.5 190.5 L 1403.5 190.5 M 0.5 200.5 L 1403.5 200.5 M 0.5 210.5 L 1403.5 210.5 M 0.5 231.5 L 1403.5 231.5 M 0.5 241.5 L 1403.5 241.5 M 0.5 251.5 L 1403.5 251.5 M 0.5 261.5 L 1403.5 261.5 M 0.5 281.5 L 1403.5 281.5 M 0.5 292.5 L 1403.5 292.5 M 0.5 302.5 L 1403.5 302.5 M 0.5 312.5 L 1403.5 312.5 M 0.5 332.5 L 1403.5 332.5 M 0.5 342.5 L 1403.5 342.5 M 0.5 353.5 L 1403.5 353.5 M 0.5 363.5 L 1403.5 363.5 M 0.5 383.5 L 1403.5 383.5 M 0.5 393.5 L 1403.5 393.5 M 0.5 404.5 L 1403.5 404.5 M 0.5 414.5 L 1403.5 414.5 M 0.5 434.5 L 1403.5 434.5 M 0.5 444.5 L 1403.5 444.5 M 0.5 454.5 L 1403.5 454.5 M 0.5 465.5 L 1403.5 465.5 M 0.5 485.5 L 1403.5 485.5 M 0.5 495.5 L 1403.5 495.5 M 0.5 505.5 L 1403.5 505.5 M 0.5 515.5 L 1403.5 515.5 M 0.5 536.5 L 1403.5 536.5 M 0.5 546.5 L 1403.5 546.5 M 0.5 556.5 L 1403.5 556.5 M 0.5 566.5 L 1403.5 566.5 M 0.5 587.5 L 1403.5 587.5 M 0.5 597.5 L 1403.5 597.5 M 0.5 607.5 L 1403.5 607.5 M 0.5 617.5 L 1403.5 617.5 M 0.5 638.5 L 1403.5 638.5 M 0.5 648.5 L 1403.5 648.5 M 0.5 658.5 L 1403.5 658.5 M 0.5 668.5 L 1403.5 668.5 M 0.5 689.5 L 1403.5 689.5 M 0.5 699.5 L 1403.5 699.5 M 0.5 709.5 L 1403.5 709.5 M 0.5 719.5 L 1403.5 719.5 M 0.5 739.5 L 1403.5 739.5 M 0.5 750.5 L 1403.5 750.5 M 0.5 760.5 L 1403.5 760.5 M 0.5 770.5 L 1403.5 770.5 M 0.5 790.5 L 1403.5 790.5 M 0.5 800.5 L 1403.5 800.5 M 0.5 811.5 L 1403.5 811.5 M 0.5 821.5 L 1403.5 821.5 M 0.5 841.5 L 1403.5 841.5 M 0.5 851.5 L 1403.5 851.5 M 0.5 862.5 L 1403.5 862.5 M 0.5 872.5 L 1403.5 872.5 M 0.5 892.5 L 1403.5 892.5 M 0.5 902.5 L 1403.5 902.5 M 0.5 912.5 L 1403.5 912.5 M 0.5 923.5 L 1403.5 923.5 M 0.5 943.5 L 1403.5 943.5 M 0.5 953.5 L 1403.5 953.5 M 0.5 963.5 L 1403.5 963.5 M 0.5 973.5 L 1403.5 973.5 M 0.5 994.5 L 1403.5 994.5 M 0.5 1004.5 L 1403.5 1004.5" stroke-opacity="0.23529411764705882" stroke-linecap="round" stroke-linejoin="round" stroke-miterlimit="10"/><path fill="none" stroke="rgb(28,28,31)" paint-order="fill stroke markers" d=" M 671.5 2.5 L 671.5 1005.5" stroke-opacity="1" stroke-miterlimit="10"/><path fill="none" stroke="rgb(28,28,31)" paint-order="fill stroke markers" d=" M 671.5 1.5 L 667.5 5.5" stroke-opacity="1" stroke-miterlimit="10"/><path fill="none" stroke="rgb(28,28,31)" paint-order="fill stroke markers" d=" M 671.5 1.5 L 675.5 5.5" stroke-opacity="1" stroke-miterlimit="10"/><path fill="none" stroke="rgb(28,28,31)" paint-order="fill stroke markers" d=" M 0.5 831.5 L 1401.5 831.5" stroke-opacity="1" stroke-miterlimit="10"/><path fill="none" stroke="rgb(28,28,31)" paint-order="fill stroke markers" d=" M 1402.5 831.5 L 1398.5 827.5" stroke-opacity="1" stroke-miterlimit="10"/><path fill="none" stroke="rgb(28,28,31)" paint-order="fill stroke markers" d=" M 1402.5 831.5 L 1398.5 835.5" stroke-opacity="1" stroke-miterlimit="10"/><text fill="rgb(28,28,31)" stroke="none" font-family="geogebra-sans-serif, sans-serif" font-size="12px" font-style="normal" font-weight="normal" text-decoration="normal" x="0" y="847" text-anchor="start" dominant-baseline="alphabetic" fill-opacity="1">–2.6</text><text fill="rgb(28,28,31)" stroke="none" font-family="geogebra-sans-serif, sans-serif" font-size="12px" font-style="normal" font-weight="normal" text-decoration="normal" x="50" y="847" text-anchor="start" dominant-baseline="alphabetic" fill-opacity="1">–2.4</text><text fill="rgb(28,28,31)" stroke="none" font-family="geogebra-sans-serif, sans-serif" font-size="12px" font-style="normal" font-weight="normal" text-decoration="normal" x="100" y="847" text-anchor="start" dominant-baseline="alphabetic" fill-opacity="1">–2.2</text><text fill="rgb(28,28,31)" stroke="none" font-family="geogebra-sans-serif, sans-serif" font-size="12px" font-style="normal" font-weight="normal" text-decoration="normal" x="157" y="847" text-anchor="start" dominant-baseline="alphabetic" fill-opacity="1">–2</text><text fill="rgb(28,28,31)" stroke="none" font-family="geogebra-sans-serif, sans-serif" font-size="12px" font-style="normal" font-weight="normal" text-decoration="normal" x="202" y="847" text-anchor="start" dominant-baseline="alphabetic" fill-opacity="1">–1.8</text><text fill="rgb(28,28,31)" stroke="none" font-family="geogebra-sans-serif, sans-serif" font-size="12px" font-style="normal" font-weight="normal" text-decoration="normal" x="253" y="847" text-anchor="start" dominant-baseline="alphabetic" fill-opacity="1">–1.6</text><text fill="rgb(28,28,31)" stroke="none" font-family="geogebra-sans-serif, sans-serif" font-size="12px" font-style="normal" font-weight="normal" text-decoration="normal" x="304" y="847" text-anchor="start" dominant-baseline="alphabetic" fill-opacity="1">–1.4</text><text fill="rgb(28,28,31)" stroke="none" font-family="geogebra-sans-serif, sans-serif" font-size="12px" font-style="normal" font-weight="normal" text-decoration="normal" x="355" y="847" text-anchor="start" dominant-baseline="alphabetic" fill-opacity="1">–1.2</text><text fill="rgb(28,28,31)" stroke="none" font-family="geogebra-sans-serif, sans-serif" font-size="12px" font-style="normal" font-weight="normal" text-decoration="normal" x="412" y="847" text-anchor="start" dominant-baseline="alphabetic" fill-opacity="1">–1</text><text fill="rgb(28,28,31)" stroke="none" font-family="geogebra-sans-serif, sans-serif" font-size="12px" font-style="normal" font-weight="normal" text-decoration="normal" x="457" y="847" text-anchor="start" dominant-baseline="alphabetic" fill-opacity="1">–0.8</text><text fill="rgb(28,28,31)" stroke="none" font-family="geogebra-sans-serif, sans-serif" font-size="12px" font-style="normal" font-weight="normal" text-decoration="normal" x="508" y="847" text-anchor="start" dominant-baseline="alphabetic" fill-opacity="1">–0.6</text><text fill="rgb(28,28,31)" stroke="none" font-family="geogebra-sans-serif, sans-serif" font-size="12px" font-style="normal" font-weight="normal" text-decoration="normal" x="558" y="847" text-anchor="start" dominant-baseline="alphabetic" fill-opacity="1">–0.4</text><text fill="rgb(28,28,31)" stroke="none" font-family="geogebra-sans-serif, sans-serif" font-size="12px" font-style="normal" font-weight="normal" text-decoration="normal" x="609" y="847" text-anchor="start" dominant-baseline="alphabetic" fill-opacity="1">–0.2</text><text fill="rgb(28,28,31)" stroke="none" font-family="geogebra-sans-serif, sans-serif" font-size="12px" font-style="normal" font-weight="normal" text-decoration="normal" x="714" y="847" text-anchor="start" dominant-baseline="alphabetic" fill-opacity="1">0.2</text><text fill="rgb(28,28,31)" stroke="none" font-family="geogebra-sans-serif, sans-serif" font-size="12px" font-style="normal" font-weight="normal" text-decoration="normal" x="765" y="847" text-anchor="start" dominant-baseline="alphabetic" fill-opacity="1">0.4</text><text fill="rgb(28,28,31)" stroke="none" font-family="geogebra-sans-serif, sans-serif" font-size="12px" font-style="normal" font-weight="normal" text-decoration="normal" x="816" y="847" text-anchor="start" dominant-baseline="alphabetic" fill-opacity="1">0.6</text><text fill="rgb(28,28,31)" stroke="none" font-family="geogebra-sans-serif, sans-serif" font-size="12px" font-style="normal" font-weight="normal" text-decoration="normal" x="867" y="847" text-anchor="start" dominant-baseline="alphabetic" fill-opacity="1">0.8</text><text fill="rgb(28,28,31)" stroke="none" font-family="geogebra-sans-serif, sans-serif" font-size="12px" font-style="normal" font-weight="normal" text-decoration="normal" x="924" y="847" text-anchor="start" dominant-baseline="alphabetic" fill-opacity="1">1</text><text fill="rgb(28,28,31)" stroke="none" font-family="geogebra-sans-serif, sans-serif" font-size="12px" font-style="normal" font-weight="normal" text-decoration="normal" x="969" y="847" text-anchor="start" dominant-baseline="alphabetic" fill-opacity="1">1.2</text><text fill="rgb(28,28,31)" stroke="none" font-family="geogebra-sans-serif, sans-serif" font-size="12px" font-style="normal" font-weight="normal" text-decoration="normal" x="1019" y="847" text-anchor="start" dominant-baseline="alphabetic" fill-opacity="1">1.4</text><text fill="rgb(28,28,31)" stroke="none" font-family="geogebra-sans-serif, sans-serif" font-size="12px" font-style="normal" font-weight="normal" text-decoration="normal" x="1070" y="847" text-anchor="start" dominant-baseline="alphabetic" fill-opacity="1">1.6</text><text fill="rgb(28,28,31)" stroke="none" font-family="geogebra-sans-serif, sans-serif" font-size="12px" font-style="normal" font-weight="normal" text-decoration="normal" x="1121" y="847" text-anchor="start" dominant-baseline="alphabetic" fill-opacity="1">1.8</text><text fill="rgb(28,28,31)" stroke="none" font-family="geogebra-sans-serif, sans-serif" font-size="12px" font-style="normal" font-weight="normal" text-decoration="normal" x="1178" y="847" text-anchor="start" dominant-baseline="alphabetic" fill-opacity="1">2</text><text fill="rgb(28,28,31)" stroke="none" font-family="geogebra-sans-serif, sans-serif" font-size="12px" font-style="normal" font-weight="normal" text-decoration="normal" x="1223" y="847" text-anchor="start" dominant-baseline="alphabetic" fill-opacity="1">2.2</text><text fill="rgb(28,28,31)" stroke="none" font-family="geogebra-sans-serif, sans-serif" font-size="12px" font-style="normal" font-weight="normal" text-decoration="normal" x="1274" y="847" text-anchor="start" dominant-baseline="alphabetic" fill-opacity="1">2.4</text><text fill="rgb(28,28,31)" stroke="none" font-family="geogebra-sans-serif, sans-serif" font-size="12px" font-style="normal" font-weight="normal" text-decoration="normal" x="1325" y="847" text-anchor="start" dominant-baseline="alphabetic" fill-opacity="1">2.6</text><text fill="rgb(28,28,31)" stroke="none" font-family="geogebra-sans-serif, sans-serif" font-size="12px" font-style="normal" font-weight="normal" text-decoration="normal" x="1376" y="847" text-anchor="start" dominant-baseline="alphabetic" fill-opacity="1">2.8</text><text fill="rgb(28,28,31)" stroke="none" font-family="geogebra-sans-serif, sans-serif" font-size="12px" font-style="normal" font-weight="normal" text-decoration="normal" x="637" y="989" text-anchor="start" dominant-baseline="alphabetic" fill-opacity="1">–0.6</text><text fill="rgb(28,28,31)" stroke="none" font-family="geogebra-sans-serif, sans-serif" font-size="12px" font-style="normal" font-weight="normal" text-decoration="normal" x="637" y="938" text-anchor="start" dominant-baseline="alphabetic" fill-opacity="1">–0.4</text><text fill="rgb(28,28,31)" stroke="none" font-family="geogebra-sans-serif, sans-serif" font-size="12px" font-style="normal" font-weight="normal" text-decoration="normal" x="637" y="887" text-anchor="start" dominant-baseline="alphabetic" fill-opacity="1">–0.2</text><text fill="rgb(28,28,31)" stroke="none" font-family="geogebra-sans-serif, sans-serif" font-size="12px" font-style="normal" font-weight="normal" text-decoration="normal" x="646" y="785" text-anchor="start" dominant-baseline="alphabetic" fill-opacity="1">0.2</text><text fill="rgb(28,28,31)" stroke="none" font-family="geogebra-sans-serif, sans-serif" font-size="12px" font-style="normal" font-weight="normal" text-decoration="normal" x="646" y="734" text-anchor="start" dominant-baseline="alphabetic" fill-opacity="1">0.4</text><text fill="rgb(28,28,31)" stroke="none" font-family="geogebra-sans-serif, sans-serif" font-size="12px" font-style="normal" font-weight="normal" text-decoration="normal" x="646" y="683" text-anchor="start" dominant-baseline="alphabetic" fill-opacity="1">0.6</text><text fill="rgb(28,28,31)" stroke="none" font-family="geogebra-sans-serif, sans-serif" font-size="12px" font-style="normal" font-weight="normal" text-decoration="normal" x="646" y="632" text-anchor="start" dominant-baseline="alphabetic" fill-opacity="1">0.8</text><text fill="rgb(28,28,31)" stroke="none" font-family="geogebra-sans-serif, sans-serif" font-size="12px" font-style="normal" font-weight="normal" text-decoration="normal" x="659" y="582" text-anchor="start" dominant-baseline="alphabetic" fill-opacity="1">1</text><text fill="rgb(28,28,31)" stroke="none" font-family="geogebra-sans-serif, sans-serif" font-size="12px" font-style="normal" font-weight="normal" text-decoration="normal" x="649" y="531" text-anchor="start" dominant-baseline="alphabetic" fill-opacity="1">1.2</text><text fill="rgb(28,28,31)" stroke="none" font-family="geogebra-sans-serif, sans-serif" font-size="12px" font-style="normal" font-weight="normal" text-decoration="normal" x="649" y="480" text-anchor="start" dominant-baseline="alphabetic" fill-opacity="1">1.4</text><text fill="rgb(28,28,31)" stroke="none" font-family="geogebra-sans-serif, sans-serif" font-size="12px" font-style="normal" font-weight="normal" text-decoration="normal" x="649" y="429" text-anchor="start" dominant-baseline="alphabetic" fill-opacity="1">1.6</text><text fill="rgb(28,28,31)" stroke="none" font-family="geogebra-sans-serif, sans-serif" font-size="12px" font-style="normal" font-weight="normal" text-decoration="normal" x="649" y="378" text-anchor="start" dominant-baseline="alphabetic" fill-opacity="1">1.8</text><text fill="rgb(28,28,31)" stroke="none" font-family="geogebra-sans-serif, sans-serif" font-size="12px" font-style="normal" font-weight="normal" text-decoration="normal" x="657" y="327" text-anchor="start" dominant-baseline="alphabetic" fill-opacity="1">2</text><text fill="rgb(28,28,31)" stroke="none" font-family="geogebra-sans-serif, sans-serif" font-size="12px" font-style="normal" font-weight="normal" text-decoration="normal" x="646" y="276" text-anchor="start" dominant-baseline="alphabetic" fill-opacity="1">2.2</text><text fill="rgb(28,28,31)" stroke="none" font-family="geogebra-sans-serif, sans-serif" font-size="12px" font-style="normal" font-weight="normal" text-decoration="normal" x="646" y="225" text-anchor="start" dominant-baseline="alphabetic" fill-opacity="1">2.4</text><text fill="rgb(28,28,31)" stroke="none" font-family="geogebra-sans-serif, sans-serif" font-size="12px" font-style="normal" font-weight="normal" text-decoration="normal" x="646" y="174" text-anchor="start" dominant-baseline="alphabetic" fill-opacity="1">2.6</text><text fill="rgb(28,28,31)" stroke="none" font-family="geogebra-sans-serif, sans-serif" font-size="12px" font-style="normal" font-weight="normal" text-decoration="normal" x="646" y="124" text-anchor="start" dominant-baseline="alphabetic" fill-opacity="1">2.8</text><text fill="rgb(28,28,31)" stroke="none" font-family="geogebra-sans-serif, sans-serif" font-size="12px" font-style="normal" font-weight="normal" text-decoration="normal" x="657" y="73" text-anchor="start" dominant-baseline="alphabetic" fill-opacity="1">3</text><text fill="rgb(28,28,31)" stroke="none" font-family="geogebra-sans-serif, sans-serif" font-size="12px" font-style="normal" font-weight="normal" text-decoration="normal" x="646" y="22" text-anchor="start" dominant-baseline="alphabetic" fill-opacity="1">3.2</text><text fill="rgb(28,28,31)" stroke="none" font-family="geogebra-sans-serif, sans-serif" font-size="12px" font-style="normal" font-weight="normal" text-decoration="normal" x="657" y="847" text-anchor="start" dominant-baseline="alphabetic" fill-opacity="1">0</text><path fill="none" stroke="rgb(0,103,88)" paint-order="fill stroke markers" d=" M 417.2717917987116 32.13883017397643 L 417.41942623468935 40.80690954528848 L 417.56706067066716 44.39793851595937 L 417.86232954262266 49.477505185592236 L 418.4528672865337 56.66416859423293 L 419.0434050304448 62.181935107080676 L 419.6339427743558 66.83634988720758 L 420.8150182621779 74.65095119122032 L 421.99609375 81.2467053825983 M 421.99609375 81.2467053825983 L 423.3662109375 87.94020452067286 L 424.736328125 93.92296397564337 L 426.1064453125 99.38499303726917 L 427.4765625 104.44443638377675 M 427.4765625 104.44443638377675 L 430.216796875 113.65013628766496 L 432.95703125 121.94585636943589 L 435.697265625 129.5645654420432 L 438.4375 136.65464678227727 M 438.4375 136.65464678227727 L 441.177734375 143.3174963060511 L 443.91796875 149.6260294531586 L 446.658203125 155.63475586289508 L 449.3984375 161.38568968578033 L 452.138671875 166.91202378794878 L 454.87890625 172.2405222097733 L 457.619140625 177.39313828650256 L 460.359375 182.38814428836474 L 465.83984375 191.96465486264105 L 471.3203125 201.06851211485423 L 476.80078125 209.77367880163786 L 482.28125 218.1373999213365 L 487.76171875 226.20507017648833 L 493.2421875 234.01342052505765 L 498.72265625 241.59268296067717 L 504.203125 248.96810743454205 L 509.68359375 256.1610531767477 L 515.1640625 263.18979184360876 L 520.64453125 270.0701103821533 L 526.125 276.8157714908965 M 526.125 276.8157714908965 L 531.60546875 283.43887078034277 L 537.0859375 289.95011765565846 L 542.56640625 296.3590589747881 L 548.046875 302.6742591606243 L 553.52734375 308.9034467482038 L 559.0078125 315.05363475795525 L 564.48828125 321.1312204422063 L 569.96875 327.14206861992164 L 575.44921875 333.09158183894215 L 580.9296875 338.98475988148374 L 586.41015625 344.8262505860006 L 591.890625 350.62039354722504 L 597.37109375 356.3712579414451 L 602.8515625 362.0826754810624 L 608.33203125 367.75826931332347 L 613.8125 373.40147952980016 L 619.29296875 379.0155858361378 L 624.7734375 384.60372783866995 L 630.25390625 390.16892333038686 L 635.734375 395.7140848994222 L 641.21484375 401.24203513563026 L 646.6953125 406.7555206726381 L 652.17578125 412.2572252721796 L 657.65625 417.74978213318667 L 663.13671875 423.23578558897486 L 668.6171875 428.7178023411163 L 674.09765625 434.1983823676503 L 679.578125 439.68006963570417 L 685.05859375 445.1654127440919 L 690.5390625 450.6569756198544 L 696.01953125 456.1573483939425 L 701.5 461.66915858536134 M 701.5 461.66915858536134 L 706.98046875 467.1950827302633 L 712.4609375 472.73785860296465 L 717.94140625 478.30029819007746 L 723.421875 483.8853015974836 L 728.90234375 489.49587209347897 L 734.3828125 495.1351325211185 L 739.86328125 500.8063433499015 L 745.34375 506.51292268319565 L 750.82421875 512.2584685954458 L 756.3046875 518.0467842452076 L 761.78515625 523.8819063002616 L 767.265625 529.7681373246407 L 772.74609375 535.71008292119 L 778.2265625 541.712694606495 L 783.70703125 547.7813196301718 L 789.1875 553.9217592547458 L 794.66796875 560.1403374094361 L 800.1484375 566.4439821543797 L 805.62890625 572.8403230884645 L 811.109375 579.3378087719507 L 816.58984375 585.9458495136976 L 822.0703125 592.6749926392395 L 827.55078125 599.5371398322357 L 833.03125 606.5458196694374 L 838.51171875 613.7165335844124 L 843.9921875 621.0672010591632 L 849.47265625 628.6187412749072 L 854.953125 636.3958461603604 L 860.43359375 644.428027971255 L 865.9140625 652.7510708673597 L 871.39453125 661.4090948968435 L 876.875 670.457581088638 M 876.875 670.457581088638 L 882.35546875 679.9679683456914 L 885.095703125 684.9247733848401 L 887.8359375 690.0349520670267 L 890.576171875 695.3159656524017 L 893.31640625 700.788721085253 L 896.056640625 706.4786049496596 L 898.796875 712.4169536494809 L 901.537109375 718.6432082158336 L 904.27734375 725.2081888645104 L 907.017578125 732.1792946102586 L 909.7578125 739.6492226091675 L 912.498046875 747.7516463662698 L 915.23828125 756.6921470742129 L 916.6083984375 761.576009389857 L 917.978515625 766.8177404628414 L 919.3486328125 772.5127349398615 L 920.71875 778.8078444763352 M 920.71875 778.8078444763352 L 922.0772166581008 785.8859412611675 L 923.4356833162017 794.27052776212 L 924.114916645252 799.2637781453168 L 924.7941499743025 805.1827089525846 L 925.4733833033529 812.89118924421 L 925.8129999678781 818.3392281499622 L 925.9828083001407 822.1906270465893 L 926.1526166324034 831.4869605990971" stroke-opacity="0.6980392156862745" stroke-linecap="round" stroke-linejoin="round" stroke-miterlimit="10" stroke-width="2.5"/></g></g></svg>