<svg version="1.1" xmlns="http://www.w3.org/2000/svg" xmlns:xlink="http://www.w3.org/1999/xlink" width="1403" height="784"><defs><clipPath id="TzQplIcGnIHJ"><path fill="none" stroke="none" d=" M 0 0 L 1403 0 L 1403 784 L 0 784 L 0 0 Z"/></clipPath></defs><g transform="scale(1,1)" clip-path="url(#TzQplIcGnIHJ)"><g><path fill="none" stroke="rgb(0,0,0)" paint-order="fill stroke markers" d=" M 810.8061646162419 408.6875688095243 C 810.8061646162419 593.2712304725791 661.171541744721 742.9058533440997 476.58788008166584 742.9058533440997 C 292.00421841861066 742.9058533440997 142.3695955470899 593.2712304725791 142.3695955470899 408.6875688095243 C 142.3695955470899 224.10390714646942 292.00421841861066 74.4692842749489 476.58788008166584 74.4692842749489 C 661.171541744721 74.4692842749489 810.8061646162419 224.10390714646942 810.8061646162419 408.6875688095243 Z" stroke-opacity="0.6980392156862745" stroke-linecap="round" stroke-linejoin="round" stroke-miterlimit="10" stroke-width="2.5"/><path fill="none" stroke="rgb(0,0,0)" paint-order="fill stroke markers" d=" M 142.38055136839142 405.9814365932226 C 141.41216019286844 525.5777467703115 204.42417479972636 636.5756870471444 307.6125722336095 697.0436109776903 C 410.8009696674926 757.5115349082362 538.4353630282606 758.2315084792722 642.2993598007957 698.931547569689 C 746.1633565733309 639.6315866601057 810.4235792185182 529.351577065868 810.8044697414891 409.75195285302703" stroke-opacity="0.6980392156862745" stroke-linecap="round" stroke-linejoin="round" stroke-miterlimit="10" stroke-width="2.5"/><path fill="none" stroke="rgb(211,47,47)" paint-order="fill stroke markers" d=" M 810.8044697414891 409.7519528530269 C 778.7585839581965 251.403105900319 639.9891111240379 137.27612164018558 478.43251950123283 136.4021478933131 C 316.8759278784277 135.52817414644068 176.87982611632856 248.14711846043676 143.12262447618974 406.13999002214666" stroke-opacity="0.6980392156862745" stroke-linecap="round" stroke-linejoin="round" stroke-miterlimit="10"/><text fill="rgb(211,47,47)" stroke="none" font-family="geogebra-sans-serif, sans-serif" font-size="16px" font-style="normal" font-weight="normal" text-decoration="normal" x="484" y="130" text-anchor="start" dominant-baseline="alphabetic" fill-opacity="1">本初子午线</text><path fill="none" stroke="rgb(255,0,0)" paint-order="fill stroke markers" d=" M 142.3805513683913 405.98143659322227 C 223.48168914768885 506.4633207012068 345.6042629362255 564.970678761544 474.7319047269609 565.2067053503138 C 603.8595465176963 565.4427319390836 726.1951894768775 507.3822080204957 807.6631167064704 407.1974765695365" stroke-opacity="0.6980392156862745" stroke-linecap="round" stroke-linejoin="round" stroke-miterlimit="10" stroke-width="1.5"/><text fill="rgb(255,0,0)" stroke="none" font-family="geogebra-sans-serif, sans-serif" font-size="16px" font-style="normal" font-weight="normal" text-decoration="normal" x="480" y="559" text-anchor="start" dominant-baseline="alphabetic" fill-opacity="1">赤道</text><path fill="none" stroke="rgb(0,0,0)" paint-order="fill stroke markers" d=" M 475.5144184202696 137.10176847623467 C 350.67754578789055 222.64458370622123 275.0109918828482 363.35872571011794 272.4831655463524 514.6710784778841" stroke-opacity="0.6980392156862745" stroke-linecap="round" stroke-linejoin="round" stroke-miterlimit="10" stroke-width="2.5"/><path fill="none" stroke="rgb(0,0,0)" paint-order="fill stroke markers" d=" M 746.1990570746673 468.77069330968624 C 746.6980595053203 307.8977455302097 633.1518142920735 169.2200103125951 475.3433094525507 137.96572850996233" stroke-opacity="0.6980392156862745" stroke-linecap="round" stroke-linejoin="round" stroke-miterlimit="10" stroke-width="2.5"/><path fill="none" stroke="rgb(0,153,0)" paint-order="fill stroke markers" d=" M 366.4927377501841 154.65923712798238 C 369.7795932371766 175.06870026980832 378.72945474267965 194.14571620291906 392.323886463402 209.71944507305622" stroke-opacity="0.6980392156862745" stroke-linecap="round" stroke-linejoin="round" stroke-miterlimit="10"/><text fill="rgb(0,153,0)" stroke="none" font-family="geogebra-sans-serif, sans-serif" font-size="16px" font-style="normal" font-weight="normal" text-decoration="normal" x="381" y="178" text-anchor="start" dominant-baseline="alphabetic" fill-opacity="1">ja</text><path fill="none" stroke="rgb(0,153,0)" paint-order="fill stroke markers" d=" M 315.9532340232729 176.60343560673604 C 332.6101516838828 243.88660878394955 389.6828798019441 293.49095783860525 458.63062127812714 300.6104552984467 C 527.5783627543102 307.7299527582881 593.5830033119632 270.83449009918456 623.6370958587856 208.37466445153905" stroke-opacity="0.6980392156862745" stroke-linecap="round" stroke-linejoin="round" stroke-miterlimit="10"/><text fill="rgb(0,153,0)" stroke="none" font-family="geogebra-sans-serif, sans-serif" font-size="16px" font-style="normal" font-weight="normal" text-decoration="normal" x="464" y="294" text-anchor="start" dominant-baseline="alphabetic" fill-opacity="1">jb</text><path fill="none" stroke="rgb(0,153,0)" paint-order="fill stroke markers" d=" M 411.9340579455388 350.99646598036486 C 387.9250683116352 377.90309229422235 383.0898402325772 416.8664886445204 399.7938050289292 448.82545738440143" stroke-opacity="0.6980392156862745" stroke-linecap="round" stroke-linejoin="round" stroke-miterlimit="10"/><text fill="rgb(0,153,0)" stroke="none" font-family="geogebra-sans-serif, sans-serif" font-size="16px" font-style="normal" font-weight="normal" text-decoration="normal" x="396" y="392" text-anchor="start" dominant-baseline="alphabetic" fill-opacity="1">wa</text><path fill="none" stroke="rgb(0,153,0)" paint-order="fill stroke markers" d=" M 545.2296096636142 423.98444793143733 C 549.8816648424257 403.10926737732996 544.781427979279 381.2515276125701 531.3708814284523 364.5910347698777 C 517.9603348776258 347.9305419271853 497.69700606402 338.2780443708085 476.3099156923984 338.36257832484654" stroke-opacity="0.6980392156862745" stroke-linecap="round" stroke-linejoin="round" stroke-miterlimit="10"/><text fill="rgb(0,153,0)" stroke="none" font-family="geogebra-sans-serif, sans-serif" font-size="16px" font-style="normal" font-weight="normal" text-decoration="normal" x="537" y="358" text-anchor="start" dominant-baseline="alphabetic" fill-opacity="1">wb</text><path fill="none" stroke="rgb(0,0,0)" paint-order="fill stroke markers" d=" M 670.8844407944148 253.0356279070461 C 560.5755055120563 212.7180346020906 437.9841828752748 224.13759356633796 337.0197910190438 284.13560278441764" stroke-opacity="0.6980392156862745" stroke-linecap="round" stroke-linejoin="round" stroke-miterlimit="10" stroke-width="2.5"/><path fill="none" stroke="rgb(0,0,0)" paint-order="fill stroke markers" d=" M 476.58788008166584 408.6875688095243 L 337.03786410013356 284.1660160875418" stroke-opacity="0.6980392156862745" stroke-linejoin="round" stroke-miterlimit="10" stroke-dasharray="9,8"/><path fill="none" stroke="rgb(0,0,0)" paint-order="fill stroke markers" d=" M 476.58788008166584 408.6875688095243 L 670.8844407944148 253.03562790704615" stroke-opacity="0.6980392156862745" stroke-linejoin="round" stroke-miterlimit="10" stroke-dasharray="9,8"/><path fill="none" stroke="rgb(0,0,0)" paint-order="fill stroke markers" d=" M 142.38055136839142 405.9814365932225 L 810.8044697414891 409.7519528530269" stroke-opacity="0.6980392156862745" stroke-linejoin="round" stroke-miterlimit="10" stroke-dasharray="9,8"/><path fill="none" stroke="rgb(0,0,0)" paint-order="fill stroke markers" d=" M 476.58788008166584 408.6875688095243 L 475.51441842026946 137.10176847623484" stroke-opacity="0.6980392156862745" stroke-linejoin="round" stroke-miterlimit="10" stroke-width="1.5" stroke-dasharray="9.5,8"/><path fill="none" stroke="rgb(0,0,0)" paint-order="fill stroke markers" d=" M 476.58788008166584 408.6875688095243 L 273.773016997187 514.6926267547294" stroke-opacity="0.6980392156862745" stroke-linecap="round" stroke-linejoin="round" stroke-miterlimit="10" stroke-width="2.5"/><path fill="none" stroke="rgb(0,0,0)" paint-order="fill stroke markers" d=" M 337.03786410013356 284.1660160875418 L 334.7728775399037 482.8098857507494" stroke-opacity="0.6980392156862745" stroke-linejoin="round" stroke-miterlimit="10" stroke-dasharray="9,8"/><path fill="none" stroke="rgb(0,0,0)" paint-order="fill stroke markers" d=" M 476.58788008166584 408.6875688095243 L 746.1990570746673 468.7706933096863" stroke-opacity="0.6980392156862745" stroke-linecap="round" stroke-linejoin="round" stroke-miterlimit="10" stroke-width="2.5"/><path fill="none" stroke="rgb(0,0,0)" paint-order="fill stroke markers" d=" M 670.8844407944148 253.03562790704615 L 670.924703038591 451.9957270947795" stroke-opacity="0.6980392156862745" stroke-linejoin="round" stroke-miterlimit="10" stroke-dasharray="9,8"/><path fill="none" stroke="rgb(0,0,0)" paint-order="fill stroke markers" d=" M 337.03786410013356 284.1660160875418 L 670.8844407944148 253.03562790704615" stroke-opacity="0.6980392156862745" stroke-linejoin="round" stroke-miterlimit="10" stroke-dasharray="9,8"/><path fill="none" stroke="rgb(0,0,0)" paint-order="fill stroke markers" d=" M 334.7728775399037 482.8098857507494 L 670.924703038591 451.9957270947795" stroke-opacity="0.6980392156862745" stroke-linejoin="round" stroke-miterlimit="10" stroke-dasharray="9,8"/><path fill="none" stroke="rgb(0,0,0)" paint-order="fill stroke markers" d=" M 337.03786410013356 284.1660160875418 L 670.8911749483382 286.31315527695085" stroke-opacity="0.6980392156862745" stroke-linejoin="round" stroke-miterlimit="10" stroke-dasharray="9,8"/><path fill="rgb(21,101,192)" stroke="none" paint-order="stroke fill markers" d=" M 481.58788008166584 408.6875688095243 C 481.58788008166584 411.44899255867824 479.3493038308198 413.6875688095243 476.58788008166584 413.6875688095243 C 473.8264563325119 413.6875688095243 471.58788008166584 411.44899255867824 471.58788008166584 408.6875688095243 C 471.58788008166584 405.92614506037035 473.8264563325119 403.6875688095243 476.58788008166584 403.6875688095243 C 479.3493038308198 403.6875688095243 481.58788008166584 405.92614506037035 481.58788008166584 408.6875688095243 Z" fill-opacity="1"/><path fill="none" stroke="rgb(0,0,0)" paint-order="fill stroke markers" d=" M 481.58788008166584 408.6875688095243 C 481.58788008166584 411.44899255867824 479.3493038308198 413.6875688095243 476.58788008166584 413.6875688095243 C 473.8264563325119 413.6875688095243 471.58788008166584 411.44899255867824 471.58788008166584 408.6875688095243 C 471.58788008166584 405.92614506037035 473.8264563325119 403.6875688095243 476.58788008166584 403.6875688095243 C 479.3493038308198 403.6875688095243 481.58788008166584 405.92614506037035 481.58788008166584 408.6875688095243 Z" stroke-opacity="1" stroke-linecap="round" stroke-linejoin="round" stroke-miterlimit="10"/><text fill="rgb(21,101,192)" stroke="none" font-family="geogebra-sans-serif, sans-serif" font-size="16px" font-style="normal" font-weight="normal" text-decoration="normal" x="481" y="399" text-anchor="start" dominant-baseline="alphabetic" fill-opacity="1">O</text><path fill="rgb(21,101,192)" stroke="none" paint-order="stroke fill markers" d=" M 342.03786410013356 284.1660160875418 C 342.03786410013356 286.9274398366957 339.7992878492875 289.1660160875418 337.03786410013356 289.1660160875418 C 334.2764403509796 289.1660160875418 332.03786410013356 286.9274398366957 332.03786410013356 284.1660160875418 C 332.03786410013356 281.40459233838783 334.2764403509796 279.1660160875418 337.03786410013356 279.1660160875418 C 339.7992878492875 279.1660160875418 342.03786410013356 281.40459233838783 342.03786410013356 284.1660160875418 Z" fill-opacity="1"/><path fill="none" stroke="rgb(0,0,0)" paint-order="fill stroke markers" d=" M 342.03786410013356 284.1660160875418 C 342.03786410013356 286.9274398366957 339.7992878492875 289.1660160875418 337.03786410013356 289.1660160875418 C 334.2764403509796 289.1660160875418 332.03786410013356 286.9274398366957 332.03786410013356 284.1660160875418 C 332.03786410013356 281.40459233838783 334.2764403509796 279.1660160875418 337.03786410013356 279.1660160875418 C 339.7992878492875 279.1660160875418 342.03786410013356 281.40459233838783 342.03786410013356 284.1660160875418 Z" stroke-opacity="1" stroke-linecap="round" stroke-linejoin="round" stroke-miterlimit="10"/><text fill="rgb(21,101,192)" stroke="none" font-family="geogebra-sans-serif, sans-serif" font-size="16px" font-style="normal" font-weight="normal" text-decoration="normal" x="341" y="274" text-anchor="start" dominant-baseline="alphabetic" fill-opacity="1">A</text><path fill="rgb(21,101,192)" stroke="none" paint-order="stroke fill markers" d=" M 675.8844407944148 253.03562790704615 C 675.8844407944148 255.79705165620013 673.6458645435688 258.03562790704615 670.8844407944148 258.03562790704615 C 668.1230170452608 258.03562790704615 665.8844407944148 255.79705165620013 665.8844407944148 253.03562790704615 C 665.8844407944148 250.27420415789217 668.1230170452608 248.03562790704615 670.8844407944148 248.03562790704615 C 673.6458645435688 248.03562790704615 675.8844407944148 250.27420415789217 675.8844407944148 253.03562790704615 Z" fill-opacity="1"/><path fill="none" stroke="rgb(0,0,0)" paint-order="fill stroke markers" d=" M 675.8844407944148 253.03562790704615 C 675.8844407944148 255.79705165620013 673.6458645435688 258.03562790704615 670.8844407944148 258.03562790704615 C 668.1230170452608 258.03562790704615 665.8844407944148 255.79705165620013 665.8844407944148 253.03562790704615 C 665.8844407944148 250.27420415789217 668.1230170452608 248.03562790704615 670.8844407944148 248.03562790704615 C 673.6458645435688 248.03562790704615 675.8844407944148 250.27420415789217 675.8844407944148 253.03562790704615 Z" stroke-opacity="1" stroke-linecap="round" stroke-linejoin="round" stroke-miterlimit="10"/><text fill="rgb(21,101,192)" stroke="none" font-family="geogebra-sans-serif, sans-serif" font-size="16px" font-style="normal" font-weight="normal" text-decoration="normal" x="675" y="243" text-anchor="start" dominant-baseline="alphabetic" fill-opacity="1">B</text><path fill="rgb(21,101,192)" stroke="none" paint-order="stroke fill markers" d=" M 339.7728775399037 482.8098857507494 C 339.7728775399037 485.57130949990335 337.5343012890576 487.8098857507494 334.7728775399037 487.8098857507494 C 332.0114537907497 487.8098857507494 329.7728775399037 485.57130949990335 329.7728775399037 482.8098857507494 C 329.7728775399037 480.04846200159545 332.0114537907497 477.8098857507494 334.7728775399037 477.8098857507494 C 337.5343012890576 477.8098857507494 339.7728775399037 480.04846200159545 339.7728775399037 482.8098857507494 Z" fill-opacity="1"/><path fill="none" stroke="rgb(0,0,0)" paint-order="fill stroke markers" d=" M 339.7728775399037 482.8098857507494 C 339.7728775399037 485.57130949990335 337.5343012890576 487.8098857507494 334.7728775399037 487.8098857507494 C 332.0114537907497 487.8098857507494 329.7728775399037 485.57130949990335 329.7728775399037 482.8098857507494 C 329.7728775399037 480.04846200159545 332.0114537907497 477.8098857507494 334.7728775399037 477.8098857507494 C 337.5343012890576 477.8098857507494 339.7728775399037 480.04846200159545 339.7728775399037 482.8098857507494 Z" stroke-opacity="1" stroke-linecap="round" stroke-linejoin="round" stroke-miterlimit="10"/><text fill="rgb(21,101,192)" stroke="none" font-family="geogebra-sans-serif, sans-serif" font-size="16px" font-style="normal" font-weight="normal" text-decoration="normal" x="339" y="473" text-anchor="start" dominant-baseline="alphabetic" fill-opacity="1">C</text><path fill="rgb(21,101,192)" stroke="none" paint-order="stroke fill markers" d=" M 675.924703038591 451.9957270947795 C 675.924703038591 454.75715084393346 673.686126787745 456.9957270947795 670.924703038591 456.9957270947795 C 668.163279289437 456.9957270947795 665.924703038591 454.75715084393346 665.924703038591 451.9957270947795 C 665.924703038591 449.23430334562556 668.163279289437 446.9957270947795 670.924703038591 446.9957270947795 C 673.686126787745 446.9957270947795 675.924703038591 449.23430334562556 675.924703038591 451.9957270947795 Z" fill-opacity="1"/><path fill="none" stroke="rgb(0,0,0)" paint-order="fill stroke markers" d=" M 675.924703038591 451.9957270947795 C 675.924703038591 454.75715084393346 673.686126787745 456.9957270947795 670.924703038591 456.9957270947795 C 668.163279289437 456.9957270947795 665.924703038591 454.75715084393346 665.924703038591 451.9957270947795 C 665.924703038591 449.23430334562556 668.163279289437 446.9957270947795 670.924703038591 446.9957270947795 C 673.686126787745 446.9957270947795 675.924703038591 449.23430334562556 675.924703038591 451.9957270947795 Z" stroke-opacity="1" stroke-linecap="round" stroke-linejoin="round" stroke-miterlimit="10"/><text fill="rgb(21,101,192)" stroke="none" font-family="geogebra-sans-serif, sans-serif" font-size="16px" font-style="normal" font-weight="normal" text-decoration="normal" x="675" y="442" text-anchor="start" dominant-baseline="alphabetic" fill-opacity="1">D</text><path fill="rgb(21,101,192)" stroke="none" paint-order="stroke fill markers" d=" M 675.8911749483382 286.31315527695085 C 675.8911749483382 289.0745790261048 673.6525986974922 291.31315527695085 670.8911749483382 291.31315527695085 C 668.1297511991842 291.31315527695085 665.8911749483382 289.0745790261048 665.8911749483382 286.31315527695085 C 665.8911749483382 283.5517315277969 668.1297511991842 281.31315527695085 670.8911749483382 281.31315527695085 C 673.6525986974922 281.31315527695085 675.8911749483382 283.5517315277969 675.8911749483382 286.31315527695085 Z" fill-opacity="1"/><path fill="none" stroke="rgb(0,0,0)" paint-order="fill stroke markers" d=" M 675.8911749483382 286.31315527695085 C 675.8911749483382 289.0745790261048 673.6525986974922 291.31315527695085 670.8911749483382 291.31315527695085 C 668.1297511991842 291.31315527695085 665.8911749483382 289.0745790261048 665.8911749483382 286.31315527695085 C 665.8911749483382 283.5517315277969 668.1297511991842 281.31315527695085 670.8911749483382 281.31315527695085 C 673.6525986974922 281.31315527695085 675.8911749483382 283.5517315277969 675.8911749483382 286.31315527695085 Z" stroke-opacity="1" stroke-linecap="round" stroke-linejoin="round" stroke-miterlimit="10"/><text fill="rgb(21,101,192)" stroke="none" font-family="geogebra-sans-serif, sans-serif" font-size="16px" font-style="normal" font-weight="normal" text-decoration="normal" x="675" y="276" text-anchor="start" dominant-baseline="alphabetic" fill-opacity="1">E</text></g></g></svg>