<svg version="1.1" xmlns="http://www.w3.org/2000/svg" xmlns:xlink="http://www.w3.org/1999/xlink" width="1341" height="1005"><defs><clipPath id="gJchznVzKyHF"><path fill="none" stroke="none" d=" M 0 0 L 1341 0 L 1341 1005 L 0 1005 L 0 0 Z"/></clipPath></defs><g transform="scale(1,1)" clip-path="url(#gJchznVzKyHF)"><g><rect fill="rgb(255,255,255)" stroke="none" x="0" y="0" width="1341" height="1005" fill-opacity="1"/><path fill="none" stroke="rgb(180,179,186)" paint-order="fill stroke markers" d=" M 7.5 0.5 L 7.5 1005.5 M 7.5 0.5 L 7.5 1005.5 M 60.5 0.5 L 60.5 1005.5 M 114.5 0.5 L 114.5 1005.5 M 168.5 0.5 L 168.5 1005.5 M 221.5 0.5 L 221.5 1005.5 M 275.5 0.5 L 275.5 1005.5 M 328.5 0.5 L 328.5 1005.5 M 382.5 0.5 L 382.5 1005.5 M 435.5 0.5 L 435.5 1005.5 M 489.5 0.5 L 489.5 1005.5 M 542.5 0.5 L 542.5 1005.5 M 649.5 0.5 L 649.5 1005.5 M 703.5 0.5 L 703.5 1005.5 M 756.5 0.5 L 756.5 1005.5 M 810.5 0.5 L 810.5 1005.5 M 864.5 0.5 L 864.5 1005.5 M 917.5 0.5 L 917.5 1005.5 M 971.5 0.5 L 971.5 1005.5 M 1024.5 0.5 L 1024.5 1005.5 M 1078.5 0.5 L 1078.5 1005.5 M 1131.5 0.5 L 1131.5 1005.5 M 1185.5 0.5 L 1185.5 1005.5 M 1238.5 0.5 L 1238.5 1005.5 M 1292.5 0.5 L 1292.5 1005.5" stroke-opacity="1" stroke-linecap="round" stroke-linejoin="round" stroke-miterlimit="10"/><path fill="none" stroke="rgb(180,179,186)" paint-order="fill stroke markers" d=" M 18.5 0.5 L 18.5 1005.5 M 28.5 0.5 L 28.5 1005.5 M 39.5 0.5 L 39.5 1005.5 M 50.5 0.5 L 50.5 1005.5 M 71.5 0.5 L 71.5 1005.5 M 82.5 0.5 L 82.5 1005.5 M 93.5 0.5 L 93.5 1005.5 M 103.5 0.5 L 103.5 1005.5 M 125.5 0.5 L 125.5 1005.5 M 135.5 0.5 L 135.5 1005.5 M 146.5 0.5 L 146.5 1005.5 M 157.5 0.5 L 157.5 1005.5 M 178.5 0.5 L 178.5 1005.5 M 189.5 0.5 L 189.5 1005.5 M 200.5 0.5 L 200.5 1005.5 M 210.5 0.5 L 210.5 1005.5 M 232.5 0.5 L 232.5 1005.5 M 242.5 0.5 L 242.5 1005.5 M 253.5 0.5 L 253.5 1005.5 M 264.5 0.5 L 264.5 1005.5 M 285.5 0.5 L 285.5 1005.5 M 296.5 0.5 L 296.5 1005.5 M 307.5 0.5 L 307.5 1005.5 M 317.5 0.5 L 317.5 1005.5 M 339.5 0.5 L 339.5 1005.5 M 350.5 0.5 L 350.5 1005.5 M 360.5 0.5 L 360.5 1005.5 M 371.5 0.5 L 371.5 1005.5 M 392.5 0.5 L 392.5 1005.5 M 403.5 0.5 L 403.5 1005.5 M 414.5 0.5 L 414.5 1005.5 M 425.5 0.5 L 425.5 1005.5 M 446.5 0.5 L 446.5 1005.5 M 457.5 0.5 L 457.5 1005.5 M 467.5 0.5 L 467.5 1005.5 M 478.5 0.5 L 478.5 1005.5 M 499.5 0.5 L 499.5 1005.5 M 510.5 0.5 L 510.5 1005.5 M 521.5 0.5 L 521.5 1005.5 M 532.5 0.5 L 532.5 1005.5 M 553.5 0.5 L 553.5 1005.5 M 564.5 0.5 L 564.5 1005.5 M 574.5 0.5 L 574.5 1005.5 M 585.5 0.5 L 585.5 1005.5 M 607.5 0.5 L 607.5 1005.5 M 617.5 0.5 L 617.5 1005.5 M 628.5 0.5 L 628.5 1005.5 M 639.5 0.5 L 639.5 1005.5 M 660.5 0.5 L 660.5 1005.5 M 671.5 0.5 L 671.5 1005.5 M 682.5 0.5 L 682.5 1005.5 M 692.5 0.5 L 692.5 1005.5 M 714.5 0.5 L 714.5 1005.5 M 724.5 0.5 L 724.5 1005.5 M 735.5 0.5 L 735.5 1005.5 M 746.5 0.5 L 746.5 1005.5 M 767.5 0.5 L 767.5 1005.5 M 778.5 0.5 L 778.5 1005.5 M 789.5 0.5 L 789.5 1005.5 M 799.5 0.5 L 799.5 1005.5 M 821.5 0.5 L 821.5 1005.5 M 831.5 0.5 L 831.5 1005.5 M 842.5 0.5 L 842.5 1005.5 M 853.5 0.5 L 853.5 1005.5 M 874.5 0.5 L 874.5 1005.5 M 885.5 0.5 L 885.5 1005.5 M 896.5 0.5 L 896.5 1005.5 M 906.5 0.5 L 906.5 1005.5 M 928.5 0.5 L 928.5 1005.5 M 939.5 0.5 L 939.5 1005.5 M 949.5 0.5 L 949.5 1005.5 M 960.5 0.5 L 960.5 1005.5 M 981.5 0.5 L 981.5 1005.5 M 992.5 0.5 L 992.5 1005.5 M 1003.5 0.5 L 1003.5 1005.5 M 1014.5 0.5 L 1014.5 1005.5 M 1035.5 0.5 L 1035.5 1005.5 M 1046.5 0.5 L 1046.5 1005.5 M 1056.5 0.5 L 1056.5 1005.5 M 1067.5 0.5 L 1067.5 1005.5 M 1088.5 0.5 L 1088.5 1005.5 M 1099.5 0.5 L 1099.5 1005.5 M 1110.5 0.5 L 1110.5 1005.5 M 1121.5 0.5 L 1121.5 1005.5 M 1142.5 0.5 L 1142.5 1005.5 M 1153.5 0.5 L 1153.5 1005.5 M 1163.5 0.5 L 1163.5 1005.5 M 1174.5 0.5 L 1174.5 1005.5 M 1196.5 0.5 L 1196.5 1005.5 M 1206.5 0.5 L 1206.5 1005.5 M 1217.5 0.5 L 1217.5 1005.5 M 1228.5 0.5 L 1228.5 1005.5 M 1249.5 0.5 L 1249.5 1005.5 M 1260.5 0.5 L 1260.5 1005.5 M 1271.5 0.5 L 1271.5 1005.5 M 1281.5 0.5 L 1281.5 1005.5 M 1303.5 0.5 L 1303.5 1005.5 M 1313.5 0.5 L 1313.5 1005.5 M 1324.5 0.5 L 1324.5 1005.5 M 1335.5 0.5 L 1335.5 1005.5" stroke-opacity="0.23529411764705882" stroke-linecap="round" stroke-linejoin="round" stroke-miterlimit="10"/><path fill="none" stroke="rgb(180,179,186)" paint-order="fill stroke markers" d=" M 0.5 48.5 L 1341.5 48.5 M 0.5 48.5 L 1341.5 48.5 M 0.5 102.5 L 1341.5 102.5 M 0.5 155.5 L 1341.5 155.5 M 0.5 209.5 L 1341.5 209.5 M 0.5 262.5 L 1341.5 262.5 M 0.5 316.5 L 1341.5 316.5 M 0.5 370.5 L 1341.5 370.5 M 0.5 423.5 L 1341.5 423.5 M 0.5 530.5 L 1341.5 530.5 M 0.5 584.5 L 1341.5 584.5 M 0.5 637.5 L 1341.5 637.5 M 0.5 691.5 L 1341.5 691.5 M 0.5 744.5 L 1341.5 744.5 M 0.5 798.5 L 1341.5 798.5 M 0.5 851.5 L 1341.5 851.5 M 0.5 905.5 L 1341.5 905.5 M 0.5 959.5 L 1341.5 959.5" stroke-opacity="1" stroke-linecap="round" stroke-linejoin="round" stroke-miterlimit="10"/><path fill="none" stroke="rgb(180,179,186)" paint-order="fill stroke markers" d=" M 0.5 5.5 L 1341.5 5.5 M 0.5 16.5 L 1341.5 16.5 M 0.5 27.5 L 1341.5 27.5 M 0.5 38.5 L 1341.5 38.5 M 0.5 59.5 L 1341.5 59.5 M 0.5 70.5 L 1341.5 70.5 M 0.5 80.5 L 1341.5 80.5 M 0.5 91.5 L 1341.5 91.5 M 0.5 113.5 L 1341.5 113.5 M 0.5 123.5 L 1341.5 123.5 M 0.5 134.5 L 1341.5 134.5 M 0.5 145.5 L 1341.5 145.5 M 0.5 166.5 L 1341.5 166.5 M 0.5 177.5 L 1341.5 177.5 M 0.5 187.5 L 1341.5 187.5 M 0.5 198.5 L 1341.5 198.5 M 0.5 220.5 L 1341.5 220.5 M 0.5 230.5 L 1341.5 230.5 M 0.5 241.5 L 1341.5 241.5 M 0.5 252.5 L 1341.5 252.5 M 0.5 273.5 L 1341.5 273.5 M 0.5 284.5 L 1341.5 284.5 M 0.5 295.5 L 1341.5 295.5 M 0.5 305.5 L 1341.5 305.5 M 0.5 327.5 L 1341.5 327.5 M 0.5 337.5 L 1341.5 337.5 M 0.5 348.5 L 1341.5 348.5 M 0.5 359.5 L 1341.5 359.5 M 0.5 380.5 L 1341.5 380.5 M 0.5 391.5 L 1341.5 391.5 M 0.5 402.5 L 1341.5 402.5 M 0.5 412.5 L 1341.5 412.5 M 0.5 434.5 L 1341.5 434.5 M 0.5 444.5 L 1341.5 444.5 M 0.5 455.5 L 1341.5 455.5 M 0.5 466.5 L 1341.5 466.5 M 0.5 487.5 L 1341.5 487.5 M 0.5 498.5 L 1341.5 498.5 M 0.5 509.5 L 1341.5 509.5 M 0.5 519.5 L 1341.5 519.5 M 0.5 541.5 L 1341.5 541.5 M 0.5 552.5 L 1341.5 552.5 M 0.5 562.5 L 1341.5 562.5 M 0.5 573.5 L 1341.5 573.5 M 0.5 594.5 L 1341.5 594.5 M 0.5 605.5 L 1341.5 605.5 M 0.5 616.5 L 1341.5 616.5 M 0.5 627.5 L 1341.5 627.5 M 0.5 648.5 L 1341.5 648.5 M 0.5 659.5 L 1341.5 659.5 M 0.5 669.5 L 1341.5 669.5 M 0.5 680.5 L 1341.5 680.5 M 0.5 702.5 L 1341.5 702.5 M 0.5 712.5 L 1341.5 712.5 M 0.5 723.5 L 1341.5 723.5 M 0.5 734.5 L 1341.5 734.5 M 0.5 755.5 L 1341.5 755.5 M 0.5 766.5 L 1341.5 766.5 M 0.5 776.5 L 1341.5 776.5 M 0.5 787.5 L 1341.5 787.5 M 0.5 809.5 L 1341.5 809.5 M 0.5 819.5 L 1341.5 819.5 M 0.5 830.5 L 1341.5 830.5 M 0.5 841.5 L 1341.5 841.5 M 0.5 862.5 L 1341.5 862.5 M 0.5 873.5 L 1341.5 873.5 M 0.5 884.5 L 1341.5 884.5 M 0.5 894.5 L 1341.5 894.5 M 0.5 916.5 L 1341.5 916.5 M 0.5 926.5 L 1341.5 926.5 M 0.5 937.5 L 1341.5 937.5 M 0.5 948.5 L 1341.5 948.5 M 0.5 969.5 L 1341.5 969.5 M 0.5 980.5 L 1341.5 980.5 M 0.5 991.5 L 1341.5 991.5 M 0.5 1001.5 L 1341.5 1001.5" stroke-opacity="0.23529411764705882" stroke-linecap="round" stroke-linejoin="round" stroke-miterlimit="10"/><path fill="none" stroke="rgb(28,28,31)" paint-order="fill stroke markers" d=" M 596.5 2.5 L 596.5 1005.5" stroke-opacity="1" stroke-miterlimit="10"/><path fill="none" stroke="rgb(28,28,31)" paint-order="fill stroke markers" d=" M 596.5 1.5 L 592.5 5.5" stroke-opacity="1" stroke-miterlimit="10"/><path fill="none" stroke="rgb(28,28,31)" paint-order="fill stroke markers" d=" M 596.5 1.5 L 600.5 5.5" stroke-opacity="1" stroke-miterlimit="10"/><path fill="none" stroke="rgb(28,28,31)" paint-order="fill stroke markers" d=" M 0.5 477.5 L 1339.5 477.5" stroke-opacity="1" stroke-miterlimit="10"/><path fill="none" stroke="rgb(28,28,31)" paint-order="fill stroke markers" d=" M 1340.5 477.5 L 1336.5 473.5" stroke-opacity="1" stroke-miterlimit="10"/><path fill="none" stroke="rgb(28,28,31)" paint-order="fill stroke markers" d=" M 1340.5 477.5 L 1336.5 481.5" stroke-opacity="1" stroke-miterlimit="10"/><text fill="rgb(28,28,31)" stroke="none" font-family="geogebra-sans-serif, sans-serif" font-size="12px" font-style="normal" font-weight="normal" text-decoration="normal" x="55" y="493" text-anchor="start" dominant-baseline="alphabetic" fill-opacity="1">–5</text><text fill="rgb(28,28,31)" stroke="none" font-family="geogebra-sans-serif, sans-serif" font-size="12px" font-style="normal" font-weight="normal" text-decoration="normal" x="103" y="493" text-anchor="start" dominant-baseline="alphabetic" fill-opacity="1">–4.5</text><text fill="rgb(28,28,31)" stroke="none" font-family="geogebra-sans-serif, sans-serif" font-size="12px" font-style="normal" font-weight="normal" text-decoration="normal" x="163" y="493" text-anchor="start" dominant-baseline="alphabetic" fill-opacity="1">–4</text><text fill="rgb(28,28,31)" stroke="none" font-family="geogebra-sans-serif, sans-serif" font-size="12px" font-style="normal" font-weight="normal" text-decoration="normal" x="210" y="493" text-anchor="start" dominant-baseline="alphabetic" fill-opacity="1">–3.5</text><text fill="rgb(28,28,31)" stroke="none" font-family="geogebra-sans-serif, sans-serif" font-size="12px" font-style="normal" font-weight="normal" text-decoration="normal" x="270" y="493" text-anchor="start" dominant-baseline="alphabetic" fill-opacity="1">–3</text><text fill="rgb(28,28,31)" stroke="none" font-family="geogebra-sans-serif, sans-serif" font-size="12px" font-style="normal" font-weight="normal" text-decoration="normal" x="317" y="493" text-anchor="start" dominant-baseline="alphabetic" fill-opacity="1">–2.5</text><text fill="rgb(28,28,31)" stroke="none" font-family="geogebra-sans-serif, sans-serif" font-size="12px" font-style="normal" font-weight="normal" text-decoration="normal" x="377" y="493" text-anchor="start" dominant-baseline="alphabetic" fill-opacity="1">–2</text><text fill="rgb(28,28,31)" stroke="none" font-family="geogebra-sans-serif, sans-serif" font-size="12px" font-style="normal" font-weight="normal" text-decoration="normal" x="424" y="493" text-anchor="start" dominant-baseline="alphabetic" fill-opacity="1">–1.5</text><text fill="rgb(28,28,31)" stroke="none" font-family="geogebra-sans-serif, sans-serif" font-size="12px" font-style="normal" font-weight="normal" text-decoration="normal" x="484" y="493" text-anchor="start" dominant-baseline="alphabetic" fill-opacity="1">–1</text><text fill="rgb(28,28,31)" stroke="none" font-family="geogebra-sans-serif, sans-serif" font-size="12px" font-style="normal" font-weight="normal" text-decoration="normal" x="531" y="493" text-anchor="start" dominant-baseline="alphabetic" fill-opacity="1">–0.5</text><text fill="rgb(28,28,31)" stroke="none" font-family="geogebra-sans-serif, sans-serif" font-size="12px" font-style="normal" font-weight="normal" text-decoration="normal" x="641" y="493" text-anchor="start" dominant-baseline="alphabetic" fill-opacity="1">0.5</text><text fill="rgb(28,28,31)" stroke="none" font-family="geogebra-sans-serif, sans-serif" font-size="12px" font-style="normal" font-weight="normal" text-decoration="normal" x="701" y="493" text-anchor="start" dominant-baseline="alphabetic" fill-opacity="1">1</text><text fill="rgb(28,28,31)" stroke="none" font-family="geogebra-sans-serif, sans-serif" font-size="12px" font-style="normal" font-weight="normal" text-decoration="normal" x="748" y="493" text-anchor="start" dominant-baseline="alphabetic" fill-opacity="1">1.5</text><text fill="rgb(28,28,31)" stroke="none" font-family="geogebra-sans-serif, sans-serif" font-size="12px" font-style="normal" font-weight="normal" text-decoration="normal" x="808" y="493" text-anchor="start" dominant-baseline="alphabetic" fill-opacity="1">2</text><text fill="rgb(28,28,31)" stroke="none" font-family="geogebra-sans-serif, sans-serif" font-size="12px" font-style="normal" font-weight="normal" text-decoration="normal" x="856" y="493" text-anchor="start" dominant-baseline="alphabetic" fill-opacity="1">2.5</text><text fill="rgb(28,28,31)" stroke="none" font-family="geogebra-sans-serif, sans-serif" font-size="12px" font-style="normal" font-weight="normal" text-decoration="normal" x="915" y="493" text-anchor="start" dominant-baseline="alphabetic" fill-opacity="1">3</text><text fill="rgb(28,28,31)" stroke="none" font-family="geogebra-sans-serif, sans-serif" font-size="12px" font-style="normal" font-weight="normal" text-decoration="normal" x="963" y="493" text-anchor="start" dominant-baseline="alphabetic" fill-opacity="1">3.5</text><text fill="rgb(28,28,31)" stroke="none" font-family="geogebra-sans-serif, sans-serif" font-size="12px" font-style="normal" font-weight="normal" text-decoration="normal" x="1022" y="493" text-anchor="start" dominant-baseline="alphabetic" fill-opacity="1">4</text><text fill="rgb(28,28,31)" stroke="none" font-family="geogebra-sans-serif, sans-serif" font-size="12px" font-style="normal" font-weight="normal" text-decoration="normal" x="1070" y="493" text-anchor="start" dominant-baseline="alphabetic" fill-opacity="1">4.5</text><text fill="rgb(28,28,31)" stroke="none" font-family="geogebra-sans-serif, sans-serif" font-size="12px" font-style="normal" font-weight="normal" text-decoration="normal" x="1129" y="493" text-anchor="start" dominant-baseline="alphabetic" fill-opacity="1">5</text><text fill="rgb(28,28,31)" stroke="none" font-family="geogebra-sans-serif, sans-serif" font-size="12px" font-style="normal" font-weight="normal" text-decoration="normal" x="1177" y="493" text-anchor="start" dominant-baseline="alphabetic" fill-opacity="1">5.5</text><text fill="rgb(28,28,31)" stroke="none" font-family="geogebra-sans-serif, sans-serif" font-size="12px" font-style="normal" font-weight="normal" text-decoration="normal" x="1236" y="493" text-anchor="start" dominant-baseline="alphabetic" fill-opacity="1">6</text><text fill="rgb(28,28,31)" stroke="none" font-family="geogebra-sans-serif, sans-serif" font-size="12px" font-style="normal" font-weight="normal" text-decoration="normal" x="1284" y="493" text-anchor="start" dominant-baseline="alphabetic" fill-opacity="1">6.5</text><text fill="rgb(28,28,31)" stroke="none" font-family="geogebra-sans-serif, sans-serif" font-size="12px" font-style="normal" font-weight="normal" text-decoration="normal" x="562" y="964" text-anchor="start" dominant-baseline="alphabetic" fill-opacity="1">–4.5</text><text fill="rgb(28,28,31)" stroke="none" font-family="geogebra-sans-serif, sans-serif" font-size="12px" font-style="normal" font-weight="normal" text-decoration="normal" x="572" y="910" text-anchor="start" dominant-baseline="alphabetic" fill-opacity="1">–4</text><text fill="rgb(28,28,31)" stroke="none" font-family="geogebra-sans-serif, sans-serif" font-size="12px" font-style="normal" font-weight="normal" text-decoration="normal" x="562" y="856" text-anchor="start" dominant-baseline="alphabetic" fill-opacity="1">–3.5</text><text fill="rgb(28,28,31)" stroke="none" font-family="geogebra-sans-serif, sans-serif" font-size="12px" font-style="normal" font-weight="normal" text-decoration="normal" x="572" y="803" text-anchor="start" dominant-baseline="alphabetic" fill-opacity="1">–3</text><text fill="rgb(28,28,31)" stroke="none" font-family="geogebra-sans-serif, sans-serif" font-size="12px" font-style="normal" font-weight="normal" text-decoration="normal" x="562" y="749" text-anchor="start" dominant-baseline="alphabetic" fill-opacity="1">–2.5</text><text fill="rgb(28,28,31)" stroke="none" font-family="geogebra-sans-serif, sans-serif" font-size="12px" font-style="normal" font-weight="normal" text-decoration="normal" x="572" y="696" text-anchor="start" dominant-baseline="alphabetic" fill-opacity="1">–2</text><text fill="rgb(28,28,31)" stroke="none" font-family="geogebra-sans-serif, sans-serif" font-size="12px" font-style="normal" font-weight="normal" text-decoration="normal" x="564" y="642" text-anchor="start" dominant-baseline="alphabetic" fill-opacity="1">–1.5</text><text fill="rgb(28,28,31)" stroke="none" font-family="geogebra-sans-serif, sans-serif" font-size="12px" font-style="normal" font-weight="normal" text-decoration="normal" x="574" y="589" text-anchor="start" dominant-baseline="alphabetic" fill-opacity="1">–1</text><text fill="rgb(28,28,31)" stroke="none" font-family="geogebra-sans-serif, sans-serif" font-size="12px" font-style="normal" font-weight="normal" text-decoration="normal" x="562" y="535" text-anchor="start" dominant-baseline="alphabetic" fill-opacity="1">–0.5</text><text fill="rgb(28,28,31)" stroke="none" font-family="geogebra-sans-serif, sans-serif" font-size="12px" font-style="normal" font-weight="normal" text-decoration="normal" x="571" y="428" text-anchor="start" dominant-baseline="alphabetic" fill-opacity="1">0.5</text><text fill="rgb(28,28,31)" stroke="none" font-family="geogebra-sans-serif, sans-serif" font-size="12px" font-style="normal" font-weight="normal" text-decoration="normal" x="584" y="375" text-anchor="start" dominant-baseline="alphabetic" fill-opacity="1">1</text><text fill="rgb(28,28,31)" stroke="none" font-family="geogebra-sans-serif, sans-serif" font-size="12px" font-style="normal" font-weight="normal" text-decoration="normal" x="574" y="321" text-anchor="start" dominant-baseline="alphabetic" fill-opacity="1">1.5</text><text fill="rgb(28,28,31)" stroke="none" font-family="geogebra-sans-serif, sans-serif" font-size="12px" font-style="normal" font-weight="normal" text-decoration="normal" x="582" y="267" text-anchor="start" dominant-baseline="alphabetic" fill-opacity="1">2</text><text fill="rgb(28,28,31)" stroke="none" font-family="geogebra-sans-serif, sans-serif" font-size="12px" font-style="normal" font-weight="normal" text-decoration="normal" x="571" y="214" text-anchor="start" dominant-baseline="alphabetic" fill-opacity="1">2.5</text><text fill="rgb(28,28,31)" stroke="none" font-family="geogebra-sans-serif, sans-serif" font-size="12px" font-style="normal" font-weight="normal" text-decoration="normal" x="582" y="160" text-anchor="start" dominant-baseline="alphabetic" fill-opacity="1">3</text><text fill="rgb(28,28,31)" stroke="none" font-family="geogebra-sans-serif, sans-serif" font-size="12px" font-style="normal" font-weight="normal" text-decoration="normal" x="571" y="107" text-anchor="start" dominant-baseline="alphabetic" fill-opacity="1">3.5</text><text fill="rgb(28,28,31)" stroke="none" font-family="geogebra-sans-serif, sans-serif" font-size="12px" font-style="normal" font-weight="normal" text-decoration="normal" x="582" y="53" text-anchor="start" dominant-baseline="alphabetic" fill-opacity="1">4</text><text fill="rgb(28,28,31)" stroke="none" font-family="geogebra-sans-serif, sans-serif" font-size="12px" font-style="normal" font-weight="normal" text-decoration="normal" x="582" y="493" text-anchor="start" dominant-baseline="alphabetic" fill-opacity="1">0</text><path fill="none" stroke="rgb(110,109,115)" paint-order="fill stroke markers" d=" M 275.10714457463274 798.3792788404276 L 917.6265362241684 155.85988719089124" stroke-opacity="0.8" stroke-linecap="round" stroke-linejoin="round" stroke-miterlimit="10" stroke-width="2.5"/><path fill="rgb(21,101,192)" stroke="none" paint-order="stroke fill markers" d=" M 280.10714457463274 798.3792788404276 C 280.10714457463274 801.1407025895816 277.8685683237867 803.3792788404276 275.10714457463274 803.3792788404276 C 272.3457208254788 803.3792788404276 270.10714457463274 801.1407025895816 270.10714457463274 798.3792788404276 C 270.10714457463274 795.6178550912736 272.3457208254788 793.3792788404276 275.10714457463274 793.3792788404276 C 277.8685683237867 793.3792788404276 280.10714457463274 795.6178550912736 280.10714457463274 798.3792788404276 Z" fill-opacity="1"/><path fill="none" stroke="rgb(0,0,0)" paint-order="fill stroke markers" d=" M 280.10714457463274 798.3792788404276 C 280.10714457463274 801.1407025895816 277.8685683237867 803.3792788404276 275.10714457463274 803.3792788404276 C 272.3457208254788 803.3792788404276 270.10714457463274 801.1407025895816 270.10714457463274 798.3792788404276 C 270.10714457463274 795.6178550912736 272.3457208254788 793.3792788404276 275.10714457463274 793.3792788404276 C 277.8685683237867 793.3792788404276 280.10714457463274 795.6178550912736 280.10714457463274 798.3792788404276 Z" stroke-opacity="1" stroke-linecap="round" stroke-linejoin="round" stroke-miterlimit="10"/><text fill="rgb(21,101,192)" stroke="none" font-family="geogebra-sans-serif, sans-serif" font-size="16px" font-style="normal" font-weight="normal" text-decoration="normal" x="279" y="788" text-anchor="start" dominant-baseline="alphabetic" fill-opacity="1">A</text><path fill="rgb(21,101,192)" stroke="none" paint-order="stroke fill markers" d=" M 922.6265362241684 155.85988719089124 C 922.6265362241684 158.62131094004522 920.3879599733224 160.85988719089124 917.6265362241684 160.85988719089124 C 914.8651124750144 160.85988719089124 912.6265362241684 158.62131094004522 912.6265362241684 155.85988719089124 C 912.6265362241684 153.09846344173727 914.8651124750144 150.85988719089124 917.6265362241684 150.85988719089124 C 920.3879599733224 150.85988719089124 922.6265362241684 153.09846344173727 922.6265362241684 155.85988719089124 Z" fill-opacity="1"/><path fill="none" stroke="rgb(0,0,0)" paint-order="fill stroke markers" d=" M 922.6265362241684 155.85988719089124 C 922.6265362241684 158.62131094004522 920.3879599733224 160.85988719089124 917.6265362241684 160.85988719089124 C 914.8651124750144 160.85988719089124 912.6265362241684 158.62131094004522 912.6265362241684 155.85988719089124 C 912.6265362241684 153.09846344173727 914.8651124750144 150.85988719089124 917.6265362241684 150.85988719089124 C 920.3879599733224 150.85988719089124 922.6265362241684 153.09846344173727 922.6265362241684 155.85988719089124 Z" stroke-opacity="1" stroke-linecap="round" stroke-linejoin="round" stroke-miterlimit="10"/><text fill="rgb(21,101,192)" stroke="none" font-family="geogebra-sans-serif, sans-serif" font-size="16px" font-style="normal" font-weight="normal" text-decoration="normal" x="922" y="146" text-anchor="start" dominant-baseline="alphabetic" fill-opacity="1">B</text></g></g></svg>