<svg version="1.1" xmlns="http://www.w3.org/2000/svg" xmlns:xlink="http://www.w3.org/1999/xlink" width="1727" height="1005"><defs><clipPath id="LTZtHDGqUgtJ"><path fill="none" stroke="none" d=" M 0 0 L 1727 0 L 1727 1005 L 0 1005 L 0 0 Z"/></clipPath></defs><g transform="scale(1,1)" clip-path="url(#LTZtHDGqUgtJ)"><g><rect fill="rgb(255,255,255)" stroke="none" x="0" y="0" width="1727" height="1005" fill-opacity="1"/><path fill="none" stroke="rgb(110,109,115)" paint-order="fill stroke markers" d=" M 1170.2224163245505 502.7005610408886 C 1170.2224163245505 676.980955888532 1028.9402414995052 818.2631307135779 854.6598466518619 818.2631307135779 C 680.3794518042189 818.2631307135779 539.0972769791733 676.980955888532 539.0972769791733 502.7005610408886 C 539.0972769791733 328.4201661932451 680.3794518042189 187.13799136819932 854.6598466518619 187.13799136819932 C 1028.9402414995052 187.13799136819932 1170.2224163245505 328.4201661932451 1170.2224163245505 502.7005610408886 Z" stroke-opacity="0.8" stroke-linecap="round" stroke-linejoin="round" stroke-miterlimit="10" stroke-width="2.5"/><path fill="none" stroke="rgb(110,109,115)" paint-order="fill stroke markers" d=" M 896.0663328380964 502.670197755764 C 896.0560007819795 488.58034755926104 888.8815025266827 475.4627146738107 877.0234620638607 467.85279603473475" stroke-opacity="0.8" stroke-linecap="round" stroke-linejoin="round" stroke-miterlimit="10" stroke-width="2.5"/><text fill="rgb(110,109,115)" stroke="none" font-family="geogebra-sans-serif, sans-serif" font-size="16px" font-style="normal" font-weight="normal" text-decoration="normal" x="896" y="476" text-anchor="start" dominant-baseline="alphabetic" fill-opacity="1">theta</text><path fill="none" stroke="rgb(110,109,115)" paint-order="fill stroke markers" d=" M 854.6598466518619 502.7005610408886 L 1025.094933015982 237.1226690496958" stroke-opacity="0.8" stroke-linecap="round" stroke-linejoin="round" stroke-miterlimit="10" stroke-width="2.5"/><path fill="none" stroke="rgb(110,109,115)" paint-order="fill stroke markers" d=" M 854.6598466518619 502.7005610408886 L 1021.8070062763652 770.359975984379" stroke-opacity="0.8" stroke-linecap="round" stroke-linejoin="round" stroke-miterlimit="10" stroke-width="2.5"/><path fill="none" stroke="rgb(110,109,115)" paint-order="fill stroke markers" d=" M 1025.094933015982 237.1226690496958 L 1021.3199993344964 770.6634855028965" stroke-opacity="0.8" stroke-linecap="round" stroke-linejoin="round" stroke-miterlimit="10" stroke-width="2.5"/><path fill="none" stroke="rgb(255,0,0)" paint-order="fill stroke markers" d=" M 854.6598466518619 502.7005610408886 L 1023.2167780413845 502.576958614339" stroke-opacity="0.8" stroke-linecap="round" stroke-linejoin="round" stroke-miterlimit="10" stroke-width="2.5"/><path fill="none" stroke="rgb(255,127,0)" paint-order="fill stroke markers" d=" M 1170.2224163245505 502.7005610408886 L 1023.2167780413845 502.576958614339" stroke-opacity="0.8" stroke-linecap="round" stroke-linejoin="round" stroke-miterlimit="10" stroke-width="2.5"/><path fill="none" stroke="rgb(110,109,115)" paint-order="fill stroke markers" d=" M 994.88825530799 502.5977318576672 L 994.8878741236488 478.79275095005613" stroke-opacity="0.8" stroke-linecap="round" stroke-linejoin="round" stroke-miterlimit="10" stroke-width="2.5"/><path fill="none" stroke="rgb(110,109,115)" paint-order="fill stroke markers" d=" M 994.8878741236488 478.79275095005613 L 1023.3850248610297 478.7973235019516" stroke-opacity="0.8" stroke-linecap="round" stroke-linejoin="round" stroke-miterlimit="10" stroke-width="2.5"/><path fill="rgb(21,101,192)" stroke="none" paint-order="stroke fill markers" d=" M 859.6598466518619 502.7005610408886 C 859.6598466518619 505.46198479004255 857.4212704010159 507.7005610408886 854.6598466518619 507.7005610408886 C 851.8984229027079 507.7005610408886 849.6598466518619 505.46198479004255 849.6598466518619 502.7005610408886 C 849.6598466518619 499.93913729173465 851.8984229027079 497.7005610408886 854.6598466518619 497.7005610408886 C 857.4212704010159 497.7005610408886 859.6598466518619 499.93913729173465 859.6598466518619 502.7005610408886 Z" fill-opacity="1"/><path fill="none" stroke="rgb(0,0,0)" paint-order="fill stroke markers" d=" M 859.6598466518619 502.7005610408886 C 859.6598466518619 505.46198479004255 857.4212704010159 507.7005610408886 854.6598466518619 507.7005610408886 C 851.8984229027079 507.7005610408886 849.6598466518619 505.46198479004255 849.6598466518619 502.7005610408886 C 849.6598466518619 499.93913729173465 851.8984229027079 497.7005610408886 854.6598466518619 497.7005610408886 C 857.4212704010159 497.7005610408886 859.6598466518619 499.93913729173465 859.6598466518619 502.7005610408886 Z" stroke-opacity="1" stroke-linecap="round" stroke-linejoin="round" stroke-miterlimit="10"/><text fill="rgb(21,101,192)" stroke="none" font-family="geogebra-sans-serif, sans-serif" font-size="16px" font-style="normal" font-weight="normal" text-decoration="normal" x="822" y="492" text-anchor="start" dominant-baseline="alphabetic" fill-opacity="1">O</text><path fill="rgb(21,101,192)" stroke="none" paint-order="stroke fill markers" d=" M 1175.2224163245505 502.7005610408886 C 1175.2224163245505 505.46198479004255 1172.9838400737044 507.7005610408886 1170.2224163245505 507.7005610408886 C 1167.4609925753966 507.7005610408886 1165.2224163245505 505.46198479004255 1165.2224163245505 502.7005610408886 C 1165.2224163245505 499.93913729173465 1167.4609925753966 497.7005610408886 1170.2224163245505 497.7005610408886 C 1172.9838400737044 497.7005610408886 1175.2224163245505 499.93913729173465 1175.2224163245505 502.7005610408886 Z" fill-opacity="1"/><path fill="none" stroke="rgb(0,0,0)" paint-order="fill stroke markers" d=" M 1175.2224163245505 502.7005610408886 C 1175.2224163245505 505.46198479004255 1172.9838400737044 507.7005610408886 1170.2224163245505 507.7005610408886 C 1167.4609925753966 507.7005610408886 1165.2224163245505 505.46198479004255 1165.2224163245505 502.7005610408886 C 1165.2224163245505 499.93913729173465 1167.4609925753966 497.7005610408886 1170.2224163245505 497.7005610408886 C 1172.9838400737044 497.7005610408886 1175.2224163245505 499.93913729173465 1175.2224163245505 502.7005610408886 Z" stroke-opacity="1" stroke-linecap="round" stroke-linejoin="round" stroke-miterlimit="10"/><text fill="rgb(21,101,192)" stroke="none" font-family="geogebra-sans-serif, sans-serif" font-size="16px" font-style="normal" font-weight="normal" text-decoration="normal" x="1174" y="493" text-anchor="start" dominant-baseline="alphabetic" fill-opacity="1">D</text><path fill="rgb(21,101,192)" stroke="none" paint-order="stroke fill markers" d=" M 1030.094933015982 237.1226690496958 C 1030.094933015982 239.88409279884976 1027.8563567651358 242.1226690496958 1025.094933015982 242.1226690496958 C 1022.333509266828 242.1226690496958 1020.094933015982 239.88409279884976 1020.094933015982 237.1226690496958 C 1020.094933015982 234.3612453005418 1022.333509266828 232.1226690496958 1025.094933015982 232.1226690496958 C 1027.8563567651358 232.1226690496958 1030.094933015982 234.3612453005418 1030.094933015982 237.1226690496958 Z" fill-opacity="1"/><path fill="none" stroke="rgb(0,0,0)" paint-order="fill stroke markers" d=" M 1030.094933015982 237.1226690496958 C 1030.094933015982 239.88409279884976 1027.8563567651358 242.1226690496958 1025.094933015982 242.1226690496958 C 1022.333509266828 242.1226690496958 1020.094933015982 239.88409279884976 1020.094933015982 237.1226690496958 C 1020.094933015982 234.3612453005418 1022.333509266828 232.1226690496958 1025.094933015982 232.1226690496958 C 1027.8563567651358 232.1226690496958 1030.094933015982 234.3612453005418 1030.094933015982 237.1226690496958 Z" stroke-opacity="1" stroke-linecap="round" stroke-linejoin="round" stroke-miterlimit="10"/><text fill="rgb(21,101,192)" stroke="none" font-family="geogebra-sans-serif, sans-serif" font-size="16px" font-style="normal" font-weight="normal" text-decoration="normal" x="1029" y="227" text-anchor="start" dominant-baseline="alphabetic" fill-opacity="1">A</text><path fill="rgb(21,101,192)" stroke="none" paint-order="stroke fill markers" d=" M 1026.8070062763652 770.359975984379 C 1026.8070062763652 773.121399733533 1024.568430025519 775.359975984379 1021.8070062763652 775.359975984379 C 1019.0455825272112 775.359975984379 1016.8070062763652 773.121399733533 1016.8070062763652 770.359975984379 C 1016.8070062763652 767.598552235225 1019.0455825272112 765.359975984379 1021.8070062763652 765.359975984379 C 1024.568430025519 765.359975984379 1026.8070062763652 767.598552235225 1026.8070062763652 770.359975984379 Z" fill-opacity="1"/><path fill="none" stroke="rgb(0,0,0)" paint-order="fill stroke markers" d=" M 1026.8070062763652 770.359975984379 C 1026.8070062763652 773.121399733533 1024.568430025519 775.359975984379 1021.8070062763652 775.359975984379 C 1019.0455825272112 775.359975984379 1016.8070062763652 773.121399733533 1016.8070062763652 770.359975984379 C 1016.8070062763652 767.598552235225 1019.0455825272112 765.359975984379 1021.8070062763652 765.359975984379 C 1024.568430025519 765.359975984379 1026.8070062763652 767.598552235225 1026.8070062763652 770.359975984379 Z" stroke-opacity="1" stroke-linecap="round" stroke-linejoin="round" stroke-miterlimit="10"/><text fill="rgb(21,101,192)" stroke="none" font-family="geogebra-sans-serif, sans-serif" font-size="16px" font-style="normal" font-weight="normal" text-decoration="normal" x="1026" y="760" text-anchor="start" dominant-baseline="alphabetic" fill-opacity="1">B</text><path fill="rgb(21,101,192)" stroke="none" paint-order="stroke fill markers" d=" M 1026.3199993344965 770.6634855028965 C 1026.3199993344965 773.4249092520505 1024.0814230836504 775.6634855028965 1021.3199993344964 775.6634855028965 C 1018.5585755853424 775.6634855028965 1016.3199993344964 773.4249092520505 1016.3199993344964 770.6634855028965 C 1016.3199993344964 767.9020617537425 1018.5585755853424 765.6634855028965 1021.3199993344964 765.6634855028965 C 1024.0814230836504 765.6634855028965 1026.3199993344965 767.9020617537425 1026.3199993344965 770.6634855028965 Z" fill-opacity="1"/><path fill="none" stroke="rgb(0,0,0)" paint-order="fill stroke markers" d=" M 1026.3199993344965 770.6634855028965 C 1026.3199993344965 773.4249092520505 1024.0814230836504 775.6634855028965 1021.3199993344964 775.6634855028965 C 1018.5585755853424 775.6634855028965 1016.3199993344964 773.4249092520505 1016.3199993344964 770.6634855028965 C 1016.3199993344964 767.9020617537425 1018.5585755853424 765.6634855028965 1021.3199993344964 765.6634855028965 C 1024.0814230836504 765.6634855028965 1026.3199993344965 767.9020617537425 1026.3199993344965 770.6634855028965 Z" stroke-opacity="1" stroke-linecap="round" stroke-linejoin="round" stroke-miterlimit="10"/><path fill="rgb(21,101,192)" stroke="none" paint-order="stroke fill markers" d=" M 1028.2167780413845 502.576958614339 C 1028.2167780413845 505.33838236349294 1025.9782017905384 507.576958614339 1023.2167780413845 507.576958614339 C 1020.4553542922305 507.576958614339 1018.2167780413845 505.33838236349294 1018.2167780413845 502.576958614339 C 1018.2167780413845 499.81553486518504 1020.4553542922305 497.576958614339 1023.2167780413845 497.576958614339 C 1025.9782017905384 497.576958614339 1028.2167780413845 499.81553486518504 1028.2167780413845 502.576958614339 Z" fill-opacity="1"/><path fill="none" stroke="rgb(0,0,0)" paint-order="fill stroke markers" d=" M 1028.2167780413845 502.576958614339 C 1028.2167780413845 505.33838236349294 1025.9782017905384 507.576958614339 1023.2167780413845 507.576958614339 C 1020.4553542922305 507.576958614339 1018.2167780413845 505.33838236349294 1018.2167780413845 502.576958614339 C 1018.2167780413845 499.81553486518504 1020.4553542922305 497.576958614339 1023.2167780413845 497.576958614339 C 1025.9782017905384 497.576958614339 1028.2167780413845 499.81553486518504 1028.2167780413845 502.576958614339 Z" stroke-opacity="1" stroke-linecap="round" stroke-linejoin="round" stroke-miterlimit="10"/><text fill="rgb(21,101,192)" stroke="none" font-family="geogebra-sans-serif, sans-serif" font-size="16px" font-style="normal" font-weight="normal" text-decoration="normal" x="1027" y="493" text-anchor="start" dominant-baseline="alphabetic" fill-opacity="1">C</text><text fill="rgb(0,0,0)" stroke="none" font-family="geogebra-sans-serif, sans-serif" font-size="16px" font-style="normal" font-weight="normal" text-decoration="normal" x="940" y="525" text-anchor="start" dominant-baseline="alphabetic" fill-opacity="1">cos</text><text fill="rgb(0,0,0)" stroke="none" font-family="geogebra-sans-serif, sans-serif" font-size="16px" font-style="normal" font-weight="normal" text-decoration="normal" x="1060" y="528" text-anchor="start" dominant-baseline="alphabetic" fill-opacity="1">versin</text><text fill="rgb(0,0,0)" stroke="none" font-family="geogebra-sans-serif, sans-serif" font-size="16px" font-style="normal" font-weight="normal" text-decoration="normal" x="914" y="357" text-anchor="start" dominant-baseline="alphabetic" fill-opacity="1">1</text></g></g></svg>